<?xml version="1.0" encoding="UTF-8"?>
<svg version="1.1" xmlns="http://www.w3.org/2000/svg" width="308" height="332">
<path d="M0 0 C24.14899181 19.4984899 40.24711222 46.20194246 43.68359375 77.359375 C44.33819381 90.33305945 44.08972144 102.7715118 40.68359375 115.359375 C40.42835938 116.39320313 40.173125 117.42703125 39.91015625 118.4921875 C35.1335425 135.97722315 25.62347664 151.40349988 15.68359375 166.359375 C14.86169931 167.59969455 14.0399297 168.84009682 13.21826172 170.08056641 C7.71770687 178.37864286 2.18927965 186.65791873 -3.34866333 194.93107605 C-7.28304555 200.81010152 -11.20671869 206.69617054 -15.125 212.5859375 C-25.85588087 228.71351848 -36.59809389 244.82894646 -47.56152344 260.79980469 C-50.927181 265.70875766 -54.27672385 270.62871542 -57.62890625 275.546875 C-58.27045654 276.48732666 -58.91200684 277.42777832 -59.57299805 278.39672852 C-60.16508057 279.26483154 -60.75716309 280.13293457 -61.3671875 281.02734375 C-61.88966064 281.79328857 -62.41213379 282.5592334 -62.95043945 283.34838867 C-64.08105556 285.01288998 -65.20025112 286.68514231 -66.31640625 288.359375 C-68.93573481 288.28233592 -70.73739536 287.86362349 -72.73828125 286.12109375 C-75.72036756 282.76223847 -78.14456445 279.12314838 -80.515625 275.31640625 C-84.25734651 269.39381813 -88.22519271 263.65174034 -92.25390625 257.921875 C-97.27125289 250.77866086 -102.19754986 243.63403865 -106.73828125 236.17578125 C-107.2590625 235.57636719 -107.77984375 234.97695313 -108.31640625 234.359375 C-109.63640625 234.359375 -110.95640625 234.359375 -112.31640625 234.359375 C-112.06375 233.83859375 -111.81109375 233.3178125 -111.55078125 232.78125 C-111.18205911 228.9711212 -113.4439538 226.5815033 -115.56640625 223.609375 C-116.02096191 222.95106689 -116.47551758 222.29275879 -116.94384766 221.61450195 C-117.90742097 220.22122703 -118.87647972 218.8317321 -119.85058594 217.44580078 C-121.70136115 214.81143619 -123.52456582 212.15870368 -125.34692383 209.50463867 C-126.2515405 208.18738407 -127.15765557 206.87115736 -128.06518555 205.5559082 C-133.09078837 198.26583924 -137.98606688 190.89027997 -142.88183594 183.51269531 C-144.2399136 181.47419209 -145.60782936 179.44278047 -146.98046875 177.4140625 C-170.45689959 142.66445175 -186.98976478 107.16529175 -179.34765625 64.2109375 C-173.12262068 33.09811091 -152.84826236 9.76571856 -127.859375 -8.4296875 C-89.22266564 -33.7363938 -35.30552954 -27.72258671 0 0 Z " fill="#FDC900" transform="translate(219.31640625,32.640625)"/>
<path d="M0 0 C17.29182773 13.13747286 28.91606911 32.21517365 31.91015625 53.8359375 C33.95268184 77.46682379 28.43947691 98.24168445 13.1015625 116.58984375 C4.2463805 126.08813953 -7.54507067 132.99702362 -19.80859375 137.08984375 C-20.57816406 137.34733398 -21.34773438 137.60482422 -22.140625 137.87011719 C-29.61108619 140.15971553 -36.6475149 140.63197102 -44.43359375 140.58984375 C-46.28029663 140.58126343 -46.28029663 140.58126343 -48.16430664 140.57250977 C-68.85963092 140.16895706 -86.17219894 132.19796118 -101.14453125 117.8515625 C-116.52350201 101.8164923 -122.52146006 81.39113756 -122.14453125 59.53515625 C-121.34195834 40.89025988 -113.18192375 23.83255415 -100.80859375 10.08984375 C-100.21820313 9.40664062 -99.6278125 8.7234375 -99.01953125 8.01953125 C-73.08473921 -20.12247713 -30.33961218 -20.63431204 0 0 Z " fill="#022520" transform="translate(194.80859375,59.91015625)"/>
<path d="M0 0 C1.05368774 0.00012085 1.05368774 0.00012085 2.12866211 0.00024414 C4.27087312 -0.00194055 6.41256783 -0.02008824 8.5546875 -0.0390625 C9.91080552 -0.04199671 11.266926 -0.04398132 12.62304688 -0.04492188 C13.86304443 -0.04903076 15.10304199 -0.05313965 16.38061523 -0.05737305 C19.34570312 0.18554688 19.34570312 0.18554688 21.34570312 2.18554688 C21.34570312 3.50554687 21.34570312 4.82554688 21.34570312 6.18554688 C21.95567139 6.18441895 22.56563965 6.18329102 23.1940918 6.18212891 C25.97490287 6.19428257 28.7529982 6.25197771 31.53320312 6.31054688 C32.49291016 6.30796875 33.45261719 6.30539063 34.44140625 6.30273438 C35.83842773 6.34140625 35.83842773 6.34140625 37.26367188 6.38085938 C38.11727295 6.39133301 38.97087402 6.40180664 39.8503418 6.41259766 C42.83437869 7.3369163 44.48737021 8.7420042 46.36454773 11.23144531 C48.34040547 15.166629 48.07026766 19.36281805 48.05273438 23.68164062 C48.06785568 24.70620865 48.08297699 25.73077667 48.09855652 26.78639221 C48.1413783 30.06549669 48.15022886 33.34369171 48.15820312 36.62304688 C48.18137761 38.76174391 48.20674901 40.90041833 48.234375 43.0390625 C48.28469917 47.29622761 48.31236486 51.55260905 48.32080078 55.81005859 C48.32949567 60.12032387 48.37985181 64.42731092 48.46044922 68.73681641 C48.48866533 70.81477785 48.51682518 72.89274006 48.54492188 74.97070312 C48.5816375 76.40512001 48.5816375 76.40512001 48.61909485 77.86851501 C48.70102383 86.30968387 48.70102383 86.30968387 45.34570312 90.18554688 C42.65820312 90.99804688 42.65820312 90.99804688 40.34570312 91.18554688 C40.38695312 92.23742187 40.42820312 93.28929687 40.47070312 94.37304688 C40.35360277 97.94460781 39.99850384 100.06358996 38.34570312 103.18554688 C34.88992733 104.91343477 31.1246762 104.66310941 27.34570312 104.18554688 C25.28320312 102.68554688 25.28320312 102.68554688 24.34570312 100.18554688 C24.34570312 97.54554688 24.34570312 94.90554687 24.34570312 92.18554688 C10.48570312 92.18554688 -3.37429687 92.18554688 -17.65429688 92.18554688 C-17.65429688 94.49554688 -17.65429688 96.80554688 -17.65429688 99.18554688 C-18.59179688 102.12304688 -18.59179688 102.12304688 -20.65429688 104.18554688 C-23.77255884 104.84752428 -26.52989119 104.79064593 -29.65429688 104.18554688 C-31.71679688 102.74804688 -31.71679688 102.74804688 -32.65429688 100.18554688 C-32.87251526 97.16685928 -32.82851872 94.20539213 -32.65429688 91.18554688 C-33.41742188 91.24742187 -34.18054688 91.30929688 -34.96679688 91.37304688 C-37.65429688 91.18554688 -37.65429688 91.18554688 -39.30175781 90.06469727 C-41.26722201 87.33397923 -41.0097987 85.27515382 -40.98242188 81.93164062 C-40.97831299 80.62155029 -40.9742041 79.31145996 -40.9699707 77.96166992 C-40.94909415 76.51544724 -40.92717339 75.06923931 -40.90429688 73.62304688 C-40.88889381 72.12931994 -40.87417823 70.63558578 -40.86010742 69.1418457 C-40.82598967 65.908156 -40.78003306 62.674855 -40.72802734 59.44140625 C-40.65725269 54.84809861 -40.63063703 50.25538255 -40.61154175 45.66160583 C-40.59063301 41.83601267 -40.54687568 38.01090147 -40.49768066 34.18557739 C-40.47714675 32.31559143 -40.46448998 30.44550185 -40.45983887 28.57540894 C-40.45054896 25.93804608 -40.40971317 23.30291284 -40.36132812 20.66601562 C-40.36524063 19.88095642 -40.36915314 19.09589722 -40.3731842 18.28704834 C-40.26797555 14.36282205 -39.79681684 12.3766674 -37.42773438 9.19970703 C-34.47405575 7.05464993 -33.16071532 6.54456071 -29.57226562 6.47851562 C-28.64091797 6.44951172 -27.70957031 6.42050781 -26.75 6.390625 C-25.79029297 6.38482422 -24.83058594 6.37902344 -23.84179688 6.37304688 C-22.37323242 6.3353418 -22.37323242 6.3353418 -20.875 6.296875 C-18.46769491 6.23816024 -16.06220126 6.20176707 -13.65429688 6.18554688 C-13.34492188 5.38117188 -13.03554687 4.57679687 -12.71679688 3.74804688 C-10.43377396 -1.75806722 -5.28435974 0.01916957 0 0 Z " fill="#FAFBFB" transform="translate(146.654296875,70.814453125)"/>
<path d="M0 0 C24.09 0 48.18 0 73 0 C73 5.28 73 10.56 73 16 C48.91 16 24.82 16 0 16 C0 10.72 0 5.44 0 0 Z " fill="#012821" transform="translate(114,86)"/>
<path d="M0 0 C24.09 0 48.18 0 73 0 C73 5.28 73 10.56 73 16 C48.91 16 24.82 16 0 16 C0 10.72 0 5.44 0 0 Z M1 1 C1 5.29 1 9.58 1 14 C24.1 14 47.2 14 71 14 C71 9.71 71 5.42 71 1 C47.9 1 24.8 1 1 1 Z " fill="#000806" transform="translate(114,86)"/>
<path d="M0 0 C0 3.99729517 -1.47165004 5.59363084 -3.6796875 8.921875 C-4.07498657 9.52172211 -4.47028564 10.12156921 -4.87756348 10.73959351 C-6.20338317 12.7475577 -7.53908332 14.74874189 -8.875 16.75 C-9.81514675 18.16875644 -10.7547513 19.58787229 -11.69384766 21.00732422 C-14.24748052 24.86279032 -16.81026179 28.71209594 -19.375 32.56018066 C-21.5790344 35.86937805 -23.77785026 39.18202998 -25.97697449 42.49449158 C-37.29900599 59.54518111 -48.66144371 76.56603777 -60.24511719 93.44042969 C-63.61077475 98.34938266 -66.9603176 103.26934042 -70.3125 108.1875 C-70.95405029 109.12795166 -71.59560059 110.06840332 -72.2565918 111.03735352 C-72.84867432 111.90545654 -73.44075684 112.77355957 -74.05078125 113.66796875 C-74.57325439 114.43391357 -75.09572754 115.1998584 -75.6340332 115.98901367 C-76.76464931 117.65351498 -77.88384487 119.32576731 -79 121 C-81.81707371 120.91714489 -83.53443313 120.42324261 -85.6328125 118.515625 C-88.3646987 115.42740582 -90.23515894 113.1246786 -91 109 C-86 114 -86 114 -83.8125 116.25 C-82.10747316 118.07107096 -82.10747316 118.07107096 -80 119 C-80 118.34 -80 117.68 -80 117 C-79.02300201 115.97751532 -78.01943811 114.98017648 -77 114 C-75.35784155 111.64275362 -73.75901231 109.27822862 -72.1875 106.875 C-71.74172607 106.19993408 -71.29595215 105.52486816 -70.83666992 104.8293457 C-69.55497172 102.88806284 -68.27722831 100.94422532 -67 99 C-63.9719134 94.41713351 -60.9163538 89.86372893 -57.75 85.375 C-54.31344475 80.49387506 -51.00770001 75.53191247 -47.7121582 70.55517578 C-44.65829863 65.9541447 -41.51257027 61.42915604 -38.27734375 56.953125 C-36.83452519 54.92790477 -36.83452519 54.92790477 -36 52 C-35.34 52 -34.68 52 -34 52 C-33.78214844 51.34 -33.56429687 50.68 -33.33984375 50 C-31.54500258 45.98123026 -29.09831713 42.58386671 -26.5625 39 C-25.58326064 37.60513079 -24.60536198 36.20931926 -23.62890625 34.8125 C-23.19650635 34.20019531 -22.76410645 33.58789062 -22.31860352 32.95703125 C-21.36550984 31.54247859 -20.45946239 30.09584156 -19.58422852 28.63183594 C-17.82506928 25.70939233 -15.94161092 22.89873116 -14.0234375 20.078125 C-13.46736313 19.25994293 -13.46736313 19.25994293 -12.90005493 18.42523193 C-12.12250959 17.28189742 -11.34429138 16.13902023 -10.56542969 14.99658203 C-9.36987253 13.24247705 -8.17698331 11.4865796 -6.984375 9.73046875 C-6.22671969 8.61708052 -5.46891262 7.50379553 -4.7109375 6.390625 C-4.02306152 5.38032227 -3.33518555 4.37001953 -2.62646484 3.32910156 C-1 1 -1 1 0 0 Z " fill="#F89B03" transform="translate(232,200)"/>
<path d="M0 0 C5.97873264 0.11935764 5.97873264 0.11935764 7.08984375 1.23046875 C7.33950942 4.36870325 7.27506166 7.52096488 7.27734375 10.66796875 C7.28958984 11.55291016 7.30183594 12.43785156 7.31445312 13.34960938 C7.31735352 14.61901367 7.31735352 14.61901367 7.3203125 15.9140625 C7.32442139 16.69322021 7.32853027 17.47237793 7.33276367 18.27514648 C7.08984375 20.23046875 7.08984375 20.23046875 5.08984375 22.23046875 C1.03723088 22.57537197 -0.45769801 22.53210757 -3.91015625 20.23046875 C-4.2824707 18.3828125 -4.2824707 18.3828125 -4.2734375 16.16796875 C-4.27279297 15.37132813 -4.27214844 14.5746875 -4.27148438 13.75390625 C-4.25537109 12.92117187 -4.23925781 12.0884375 -4.22265625 11.23046875 C-4.22587891 10.39773437 -4.22910156 9.565 -4.23242188 8.70703125 C-4.15939841 0.50184971 -4.15939841 0.50184971 0 0 Z " fill="#F2F5F4" transform="translate(96.91015625,102.76953125)"/>
<path d="M0 0 C0.94552734 0.16242188 0.94552734 0.16242188 1.91015625 0.328125 C4.39629806 4.05733771 4.2418568 7.01184182 4.22265625 11.328125 C4.23876953 12.05257812 4.25488281 12.77703125 4.27148438 13.5234375 C4.27633454 18.78101156 4.27633454 18.78101156 2.58203125 21.3125 C0.01717272 22.87059163 -2.16215773 22.57728977 -5.08984375 22.328125 C-5.74984375 21.998125 -6.40984375 21.668125 -7.08984375 21.328125 C-7.11872521 18.01564313 -7.13660174 14.70319333 -7.15234375 11.390625 C-7.16072266 10.44509766 -7.16910156 9.49957031 -7.17773438 8.52539062 C-7.18095703 7.62626953 -7.18417969 6.72714844 -7.1875 5.80078125 C-7.19273682 4.96812744 -7.19797363 4.13547363 -7.20336914 3.27758789 C-6.95277242 -1.02566972 -3.58865713 0.13025979 0 0 Z " fill="#F6F9F8" transform="translate(204.08984375,102.671875)"/>
<path d="M0 0 C0 3 0 3 -1 5 C-1.15854106 7.73572866 -1.25918885 10.44919465 -1.31640625 13.1875 C-1.3373233 14.02575317 -1.35824036 14.86400635 -1.37979126 15.72766113 C-1.44641968 18.48500887 -1.50514489 21.24244466 -1.5625 24 C-1.58301422 24.93529541 -1.60352844 25.87059082 -1.62466431 26.83422852 C-1.89611333 39.31421398 -2.11860301 51.79582473 -2.17623901 64.27880859 C-2.18373323 65.75701829 -2.19440329 67.23521537 -2.20828247 68.71337891 C-2.22588894 70.75677347 -2.22858872 72.80028045 -2.23046875 74.84375 C-2.23663208 76.56368164 -2.23663208 76.56368164 -2.24291992 78.31835938 C-2.27479974 81.1521538 -2.27479974 81.1521538 0 83 C2.57061311 83.64767793 2.57061311 83.64767793 5 84 C5.07347656 84.92232422 5.07347656 84.92232422 5.1484375 85.86328125 C5.22320312 86.67152344 5.29796875 87.47976562 5.375 88.3125 C5.44460937 89.11300781 5.51421875 89.91351563 5.5859375 90.73828125 C5.89564426 93.27224441 5.89564426 93.27224441 8 96 C10.66653905 96.36460453 10.66653905 96.36460453 13.625 96.1875 C14.62789062 96.16042969 15.63078125 96.13335937 16.6640625 96.10546875 C17.82035156 96.05326172 17.82035156 96.05326172 19 96 C18.67 96.66 18.34 97.32 18 98 C16.22992286 98.08114106 14.45877902 98.13925505 12.6875 98.1875 C11.70136719 98.22230469 10.71523437 98.25710937 9.69921875 98.29296875 C7 98 7 98 5.15625 96.78125 C3.66162759 94.47872359 3.69413808 93.0348242 3.8125 90.3125 C3.83957031 89.50425781 3.86664063 88.69601563 3.89453125 87.86328125 C3.92933594 87.24839844 3.96414062 86.63351563 4 86 C3.236875 85.896875 2.47375 85.79375 1.6875 85.6875 C-1.37487587 84.90410152 -2.19895144 84.56182798 -4 82 C-4.33088812 79.35083986 -4.48843494 76.92306044 -4.51171875 74.26953125 C-4.52966995 73.51911057 -4.54762115 72.76868988 -4.56611633 71.99552917 C-4.62025187 69.6012431 -4.65412416 67.20715669 -4.6875 64.8125 C-4.72067036 63.18812323 -4.75515976 61.56377283 -4.79101562 59.93945312 C-4.8759797 55.95977944 -4.94277465 51.9801653 -5 48 C-7.97 48.495 -7.97 48.495 -11 49 C-11 48.34 -11 47.68 -11 47 C-9.35 46.34 -7.7 45.68 -6 45 C-6 38.73 -6 32.46 -6 26 C-8.97 25.67 -11.94 25.34 -15 25 C-14.67 24.34 -14.34 23.68 -14 23 C-7.84765625 22.90234375 -7.84765625 22.90234375 -6 23 C-5.67 23.33 -5.34 23.66 -5 24 C-4.94392578 22.26363281 -4.94392578 22.26363281 -4.88671875 20.4921875 C-4.82102575 18.95309439 -4.75457958 17.4140333 -4.6875 15.875 C-4.66494141 15.11445312 -4.64238281 14.35390625 -4.61914062 13.5703125 C-4.38060837 8.53945048 -3.7654153 3.7654153 0 0 Z " fill="#050E09" transform="translate(109,78)"/>
<path d="M0 0 C23.43 0 46.86 0 71 0 C71 0.99 71 1.98 71 3 C47.9 3 24.8 3 1 3 C0.67 2.01 0.34 1.02 0 0 Z " fill="#000C02" transform="translate(115,133)"/>
<path d="M0 0 C3.36668354 3.0949333 5.74552471 6.50862134 8.125 10.375 C11.33184488 15.48852625 14.69270713 20.43665326 18.25 25.3125 C21.51023818 29.78781079 24.47377365 34.27674379 26.96484375 39.23046875 C27.92770519 41.05138302 27.92770519 41.05138302 29.44140625 42.42578125 C31.40811682 44.41220821 32.59280149 46.58565442 34 49 C36.03653181 52.03261767 38.09586947 55.04871818 40.16015625 58.0625 C41.79695167 60.67581244 42.97243859 63.10366111 44 66 C44.66 66 45.32 66 46 66 C47.66782746 68.4717443 49.22376055 70.94275357 50.75 73.5 C53.82015527 78.53782322 56.91974632 83.3996095 60.546875 88.05859375 C62.44867632 90.59944122 64.19770114 93.2207793 65.9375 95.875 C66.54464844 96.80054688 67.15179688 97.72609375 67.77734375 98.6796875 C68.18082031 99.44539063 68.58429688 100.21109375 69 101 C68.67 101.66 68.34 102.32 68 103 C60.6021977 93.00509689 60.6021977 93.00509689 57.828125 88.59765625 C57.14234375 87.51355469 56.4565625 86.42945313 55.75 85.3125 C54.81414062 83.79076172 54.81414062 83.79076172 53.859375 82.23828125 C53.24578125 81.49964844 52.6321875 80.76101563 52 80 C50.68 80 49.36 80 48 80 C48.37898438 79.21882813 48.37898438 79.21882813 48.765625 78.421875 C49.13434714 74.6117462 46.87245245 72.2221283 44.75 69.25 C44.29544434 68.59169189 43.84088867 67.93338379 43.37255859 67.25512695 C42.40898528 65.86185203 41.43992653 64.4723571 40.46582031 63.08642578 C38.6150451 60.45206119 36.79184043 57.79932868 34.96948242 55.14526367 C34.06486575 53.82800907 33.15875068 52.51178236 32.2512207 51.1965332 C27.23048095 43.91351855 22.33914625 36.54550787 17.44775391 29.17529297 C16.04812467 27.07230873 14.64091712 24.97464581 13.23046875 22.87890625 C0 3.20269945 0 3.20269945 0 0 Z " fill="#FAA201" transform="translate(59,187)"/>
<path d="M0 0 C3.4375 1 3.4375 1 5.4375 2.625 C6.87866288 6.04776185 6.29307966 8.44605372 5.4375 12 C3.4375 14 3.4375 14 -0.5 14.375 C-3.3990531 14.29081697 -4.25595876 14.24906476 -6.5625 12.375 C-7.85868989 9.296549 -8.04538863 7.31123632 -7.5625 4 C-5.27647022 0.43379354 -4.27192374 0 0 0 Z " fill="#05211B" transform="translate(178.5625,140)"/>
<path d="M0 0 C1.9375 1.625 1.9375 1.625 3 4 C2.67272727 10.32727273 2.67272727 10.32727273 0 13 C-3.88002054 13.43111339 -6.14921964 13.53173772 -9.5 11.4375 C-11 9 -11 9 -11 5.4375 C-10 2 -10 2 -8.3125 0 C-5.10029355 -1.38906225 -3.3063364 -1.05521374 0 0 Z " fill="#06221C" transform="translate(127,141)"/>
<path d="M0 0 C0.33 0 0.66 0 1 0 C1 5.94 1 11.88 1 18 C1.66 18 2.32 18 3 18 C3 25.26 3 32.52 3 40 C2.01 39.67 1.02 39.34 0 39 C0 26.13 0 13.26 0 0 Z " fill="#010A04" transform="translate(194,84)"/>
<path d="M0 0 C0 0.66 0 1.32 0 2 C-1.85821987 3.18609779 -3.76483921 4.29648968 -5.6875 5.375 C-12.42375072 9.29330097 -17.83986456 14.15794688 -23.41796875 19.55859375 C-26 22 -26 22 -28 23 C-27.29361456 17.17565209 -21.96959345 13.86506194 -17.71777344 10.34326172 C-4.49073064 0 -4.49073064 0 0 0 Z " fill="#FBA402" transform="translate(98,22)"/>
<path d="M0 0 C0.66 0.33 1.32 0.66 2 1 C1.01 2.98 0.02 4.96 -1 7 C-7.6 7 -14.2 7 -21 7 C-21.33 6.34 -21.66 5.68 -22 5 C-12.1 4.505 -12.1 4.505 -2 4 C-1.34 2.68 -0.68 1.36 0 0 Z " fill="#202D29" transform="translate(134,71)"/>
<path d="M0 0 C0.33 0.66 0.66 1.32 1 2 C0.22265625 4.27734375 0.22265625 4.27734375 -0.9375 6.9375 C-2.24374985 9.94408863 -3 11.69522894 -3 15 C-3.875 17.04296875 -3.875 17.04296875 -5 19.1875 C-5.37125 19.90292969 -5.7425 20.61835937 -6.125 21.35546875 C-6.41375 21.89816406 -6.7025 22.44085938 -7 23 C-7.66 23 -8.32 23 -9 23 C-7.29633652 14.43684936 -4.53642795 7.45794628 0 0 Z " fill="#0A1423" transform="translate(84,84)"/>
<path d="M0 0 C-2.06049855 0.81756238 -4.12348853 1.62884734 -6.1875 2.4375 C-7.91033203 3.11619141 -7.91033203 3.11619141 -9.66796875 3.80859375 C-12.47123233 4.81093301 -15.07112576 5.52012795 -18 6 C-15.54403107 3.12229903 -13.09110405 2.03312874 -9.5625 0.75 C-8.61503906 0.39421875 -7.66757813 0.0384375 -6.69140625 -0.328125 C-3.94125929 -1.01466386 -2.61996705 -0.96622898 0 0 Z " fill="#FAA103" transform="translate(119,15)"/>
<path d="M0 0 C2.97 0.33 5.94 0.66 9 1 C8.67 1.66 8.34 2.32 8 3 C5.69 3 3.38 3 1 3 C0.67 2.01 0.34 1.02 0 0 Z " fill="#071109" transform="translate(115,133)"/>
<path d="M0 0 C0.33 0.66 0.66 1.32 1 2 C0.34 1.67 -0.32 1.34 -1 1 C-0.67 0.67 -0.34 0.34 0 0 Z " fill="#FFE200" transform="translate(139,310)"/>
<path d="" fill="#FFFF00" transform="translate(0,0)"/>
<path d="M0 0 C0.33 0.66 0.66 1.32 1 2 C0.34 1.67 -0.32 1.34 -1 1 C-0.67 0.67 -0.34 0.34 0 0 Z " fill="#FFFF00" transform="translate(37,106)"/>
<path d="" fill="#FFDF00" transform="translate(0,0)"/>
<path d="" fill="#FFFF00" transform="translate(0,0)"/>
<path d="" fill="#FFFF00" transform="translate(0,0)"/>
<path d="M0 0 C2 1 2 1 2 1 Z " fill="#FFFF00" transform="translate(82,29)"/>
<path d="M0 0 C2 1 2 1 2 1 Z " fill="#FFD400" transform="translate(145,7)"/>
<path d="" fill="#7F7F7F" transform="translate(0,0)"/>
<path d="" fill="#FFFF00" transform="translate(0,0)"/>
<path d="" fill="#7F7F7F" transform="translate(0,0)"/>
<path d="" fill="#FFFF00" transform="translate(0,0)"/>
<path d="" fill="#FFFF00" transform="translate(0,0)"/>
<path d="" fill="#FFBF3F" transform="translate(0,0)"/>
<path d="" fill="#FFFF00" transform="translate(0,0)"/>
<path d="" fill="#FFFF00" transform="translate(0,0)"/>
<path d="" fill="#7F7F7F" transform="translate(0,0)"/>
<path d="" fill="#FFFF00" transform="translate(0,0)"/>
<path d="" fill="#FFFF00" transform="translate(0,0)"/>
<path d="" fill="#FFAA00" transform="translate(0,0)"/>
<path d="" fill="#FFFF00" transform="translate(0,0)"/>
<path d="" fill="#7F7F7F" transform="translate(0,0)"/>
<path d="" fill="#FFFF00" transform="translate(0,0)"/>
<path d="" fill="#7F7F7F" transform="translate(0,0)"/>
<path d="" fill="#FFFF00" transform="translate(0,0)"/>
<path d="" fill="#FFFF00" transform="translate(0,0)"/>
<path d="" fill="#FFFF00" transform="translate(0,0)"/>
<path d="" fill="#FFFF00" transform="translate(0,0)"/>
<path d="" fill="#FFFF00" transform="translate(0,0)"/>
<path d="" fill="#7F7F7F" transform="translate(0,0)"/>
<path d="" fill="#FFFF00" transform="translate(0,0)"/>
<path d="" fill="#FF0000" transform="translate(0,0)"/>
<path d="" fill="#FFFF00" transform="translate(0,0)"/>
<path d="" fill="#7F7F7F" transform="translate(0,0)"/>
<path d="" fill="#FFFF00" transform="translate(0,0)"/>
<path d="" fill="#FF0000" transform="translate(0,0)"/>
<path d="" fill="#FFBF00" transform="translate(0,0)"/>
<path d="" fill="#FFFF00" transform="translate(0,0)"/>
<path d="" fill="#FFFF00" transform="translate(0,0)"/>
<path d="" fill="#FF0000" transform="translate(0,0)"/>
<path d="" fill="#FFFF00" transform="translate(0,0)"/>
<path d="" fill="#7F7F00" transform="translate(0,0)"/>
<path d="" fill="#000000" transform="translate(0,0)"/>
<path d="" fill="#FFBF00" transform="translate(0,0)"/>
<path d="" fill="#FFFF00" transform="translate(0,0)"/>
<path d="" fill="#FFAA00" transform="translate(0,0)"/>
<path d="" fill="#000000" transform="translate(0,0)"/>
<path d="" fill="#FFFF00" transform="translate(0,0)"/>
<path d="" fill="#FFFF00" transform="translate(0,0)"/>
<path d="" fill="#FFFF00" transform="translate(0,0)"/>
<path d="" fill="#FFFF00" transform="translate(0,0)"/>
<path d="" fill="#FFAA00" transform="translate(0,0)"/>
<path d="" fill="#000000" transform="translate(0,0)"/>
<path d="" fill="#7F7F00" transform="translate(0,0)"/>
<path d="" fill="#000000" transform="translate(0,0)"/>
<path d="" fill="#000000" transform="translate(0,0)"/>
<path d="" fill="#7F7F00" transform="translate(0,0)"/>
<path d="" fill="#FFFF00" transform="translate(0,0)"/>
<path d="" fill="#FFFF00" transform="translate(0,0)"/>
<path d="" fill="#000000" transform="translate(0,0)"/>
<path d="" fill="#000000" transform="translate(0,0)"/>
<path d="" fill="#FF7F00" transform="translate(0,0)"/>
<path d="" fill="#7F7F00" transform="translate(0,0)"/>
<path d="" fill="#FFFF00" transform="translate(0,0)"/>
<path d="" fill="#000000" transform="translate(0,0)"/>
<path d="" fill="#FFFF00" transform="translate(0,0)"/>
<path d="" fill="#FFFF00" transform="translate(0,0)"/>
<path d="" fill="#000000" transform="translate(0,0)"/>
<path d="" fill="#FFFF00" transform="translate(0,0)"/>
<path d="" fill="#000000" transform="translate(0,0)"/>
<path d="" fill="#FFFF00" transform="translate(0,0)"/>
<path d="" fill="#FF7F00" transform="translate(0,0)"/>
<path d="" fill="#000000" transform="translate(0,0)"/>
<path d="" fill="#FF7F00" transform="translate(0,0)"/>
<path d="" fill="#FFFF00" transform="translate(0,0)"/>
<path d="" fill="#000000" transform="translate(0,0)"/>
<path d="" fill="#FFFF00" transform="translate(0,0)"/>
<path d="" fill="#000000" transform="translate(0,0)"/>
<path d="" fill="#FFFF00" transform="translate(0,0)"/>
<path d="" fill="#000000" transform="translate(0,0)"/>
<path d="" fill="#FFFF00" transform="translate(0,0)"/>
<path d="" fill="#FFFF00" transform="translate(0,0)"/>
<path d="" fill="#000000" transform="translate(0,0)"/>
<path d="" fill="#FFFF00" transform="translate(0,0)"/>
<path d="" fill="#FFAA00" transform="translate(0,0)"/>
<path d="" fill="#000000" transform="translate(0,0)"/>
<path d="" fill="#FFAA00" transform="translate(0,0)"/>
<path d="" fill="#FFFF00" transform="translate(0,0)"/>
<path d="" fill="#000000" transform="translate(0,0)"/>
<path d="" fill="#000000" transform="translate(0,0)"/>
<path d="" fill="#FFFF00" transform="translate(0,0)"/>
<path d="" fill="#7F7F00" transform="translate(0,0)"/>
<path d="" fill="#FF7F00" transform="translate(0,0)"/>
<path d="" fill="#FFFF00" transform="translate(0,0)"/>
<path d="" fill="#555500" transform="translate(0,0)"/>
<path d="" fill="#000000" transform="translate(0,0)"/>
<path d="" fill="#FFFF00" transform="translate(0,0)"/>
<path d="" fill="#7F7F00" transform="translate(0,0)"/>
<path d="" fill="#000000" transform="translate(0,0)"/>
<path d="" fill="#555500" transform="translate(0,0)"/>
<path d="" fill="#555555" transform="translate(0,0)"/>
<path d="" fill="#000000" transform="translate(0,0)"/>
<path d="" fill="#000000" transform="translate(0,0)"/>
<path d="" fill="#000000" transform="translate(0,0)"/>
<path d="" fill="#FFFF00" transform="translate(0,0)"/>
<path d="" fill="#555555" transform="translate(0,0)"/>
<path d="" fill="#000000" transform="translate(0,0)"/>
<path d="" fill="#000000" transform="translate(0,0)"/>
<path d="" fill="#FFFF00" transform="translate(0,0)"/>
<path d="" fill="#FFFF00" transform="translate(0,0)"/>
<path d="" fill="#FFFF00" transform="translate(0,0)"/>
<path d="" fill="#7F7F00" transform="translate(0,0)"/>
<path d="" fill="#FFFF00" transform="translate(0,0)"/>
<path d="" fill="#7F7F00" transform="translate(0,0)"/>
<path d="" fill="#FFFF00" transform="translate(0,0)"/>
<path d="" fill="#7F7F00" transform="translate(0,0)"/>
<path d="" fill="#FFFF00" transform="translate(0,0)"/>
<path d="" fill="#FFFF00" transform="translate(0,0)"/>
<path d="" fill="#7F7F00" transform="translate(0,0)"/>
<path d="" fill="#FFFF00" transform="translate(0,0)"/>
<path d="" fill="#FFFF00" transform="translate(0,0)"/>
<path d="" fill="#FFFF00" transform="translate(0,0)"/>
<path d="" fill="#7F7F7F" transform="translate(0,0)"/>
<path d="" fill="#FFFF00" transform="translate(0,0)"/>
<path d="" fill="#FFFF00" transform="translate(0,0)"/>
<path d="" fill="#FFFF00" transform="translate(0,0)"/>
<path d="" fill="#FFFF00" transform="translate(0,0)"/>
<path d="" fill="#FFFF00" transform="translate(0,0)"/>
<path d="" fill="#7F7F7F" transform="translate(0,0)"/>
</svg>
