<?xml version="1.0" encoding="UTF-8"?>
<svg version="1.1" xmlns="http://www.w3.org/2000/svg" width="1896" height="830">
<path d="M0 0 C625.68 0 1251.36 0 1896 0 C1896 273.9 1896 547.8 1896 830 C1270.32 830 644.64 830 0 830 C0 556.1 0 282.2 0 0 Z " fill="#FDFDFD" transform="translate(0,0)"/>
<path d="M0 0 C1.03406982 0.23605957 2.06813965 0.47211914 3.13354492 0.71533203 C10.2416572 2.4460722 16.55237492 5.00828094 23.125 8.1875 C24.5324017 8.81094328 25.94235777 9.42867047 27.35546875 10.0390625 C64.43521089 26.47652139 94.60881756 59.39219343 109.56054688 97.01977539 C113.05437512 106.2205679 115.77816096 115.63556589 118.125 125.1875 C118.44726562 126.46238281 118.76953125 127.73726562 119.1015625 129.05078125 C123.49551092 149.48058815 122.41665311 171.81932348 118.125 192.1875 C117.9081958 193.24880127 117.9081958 193.24880127 117.68701172 194.33154297 C115.58104999 204.37159306 112.25446114 213.80807684 108.125 223.1875 C107.80934082 223.92371582 107.49368164 224.65993164 107.16845703 225.41845703 C102.60930887 235.97845977 97.31496273 245.29289515 90.49609375 254.54296875 C86.51020516 259.96115573 82.82903919 265.57461465 79.125 271.1875 C73.91639171 279.05322116 68.61769572 286.83483572 63.14282227 294.51733398 C59.72215361 299.32108888 56.42154603 304.19177533 53.171875 309.11328125 C49.36167731 314.83584916 45.43896515 320.48169765 41.53515625 326.140625 C40.17665443 328.11252238 38.82192521 330.08694451 37.46875 332.0625 C33.00740448 338.57254017 28.51826009 345.06076437 23.97802734 351.51611328 C18.4566585 359.36829177 13.024472 367.26634586 7.72583008 375.27050781 C3.82761708 381.1539752 -0.13872922 386.98839972 -4.125 392.8125 C-10.24994874 401.7652007 -16.28097524 410.77741307 -22.28466797 419.81176758 C-26.54842804 426.22011952 -30.86344215 432.58602439 -35.2734375 438.89453125 C-36.49542264 440.64405631 -37.69125293 442.4118794 -38.875 444.1875 C-40.195 444.1875 -41.515 444.1875 -42.875 444.1875 C-43.41125 443.21425781 -43.9475 442.24101563 -44.5 441.23828125 C-47.0494746 436.78005527 -49.94775132 432.59107607 -52.875 428.375 C-57.2034702 422.09917448 -61.48286179 415.79690752 -65.6875 409.4375 C-70.23385151 402.57475359 -74.90611549 395.80757864 -79.625 389.0625 C-86.60436723 379.07236085 -93.40573028 368.97598865 -100.13719177 358.81761169 C-103.65377169 353.51367898 -107.18790481 348.22152151 -110.72265625 342.9296875 C-111.96259092 341.07268976 -113.2024995 339.21567461 -114.44238281 337.35864258 C-116.29210067 334.58823615 -118.14205855 331.81799244 -119.99304199 329.0484314 C-126.27149288 319.65270996 -132.51624928 310.23963348 -138.63528442 300.73921204 C-142.38816602 294.91983601 -146.19357759 289.13610749 -150.01171875 283.359375 C-150.62787552 282.42681381 -151.24403229 281.49425262 -151.87886047 280.53343201 C-154.41302069 276.69908253 -156.94811507 272.86535618 -159.4855957 269.03320312 C-179.46365036 238.85342605 -179.46365036 238.85342605 -183.9375 229.1875 C-184.26129639 228.49382324 -184.58509277 227.80014648 -184.91870117 227.08544922 C-194.55000468 205.78829087 -200.30595878 183.47653558 -200.1875 160.125 C-200.18501251 159.34515747 -200.18252502 158.56531494 -200.17996216 157.76184082 C-200.12349666 146.33322304 -199.84862783 135.28676712 -196.875 124.1875 C-196.63861816 123.29708008 -196.40223633 122.40666016 -196.15869141 121.48925781 C-188.11527993 91.97206087 -174.959804 66.48407434 -153.875 44.1875 C-153.01777344 43.25421875 -152.16054687 42.3209375 -151.27734375 41.359375 C-137.57793499 26.77621109 -120.84113935 16.7024146 -102.875 8.1875 C-102.19872559 7.86668457 -101.52245117 7.54586914 -100.82568359 7.21533203 C-69.37211218 -7.3287732 -33.18966903 -7.69990556 0 0 Z " fill="#FDB503" transform="translate(355.875,211.8125)"/>
<path d="M0 0 C17.16 0 34.32 0 52 0 C52 89.76 52 179.52 52 272 C36.49 272 20.98 272 5 272 C3.2970075 266.8910225 2.76994416 264.27273621 2.875 259.125 C2.89304687 257.97257812 2.91109375 256.82015625 2.9296875 255.6328125 C2.95289063 254.76398438 2.97609375 253.89515625 3 253 C2.34 253 1.68 253 1 253 C0.77441406 253.57234375 0.54882812 254.1446875 0.31640625 254.734375 C-5.68144985 265.0570947 -22.19224099 271.62715016 -33.09765625 274.94140625 C-40.4642285 276.35919876 -48.08177856 276.21597456 -55.5625 276.3125 C-56.60341797 276.33054687 -57.64433594 276.34859375 -58.71679688 276.3671875 C-78.73433277 276.34196061 -98.09588293 267.34171784 -112.48046875 253.63671875 C-135.46185587 229.5864299 -142.84021725 198.36884757 -142.2890625 166.14453125 C-141.93318486 154.69214946 -140.34695137 144.25375735 -135 134 C-134.42354041 132.77640246 -133.85099444 131.55095746 -133.28125 130.32421875 C-123.00258621 108.50886641 -106.18247382 89.35183163 -83 81 C-81.91332031 80.608125 -80.82664062 80.21625 -79.70703125 79.8125 C-62.51997249 74.59661705 -41.82431714 74.55142221 -25 81 C-24.17242188 81.30035156 -23.34484375 81.60070312 -22.4921875 81.91015625 C-14.23905907 85.2315372 -6.90377257 90.47698194 0 96 C0 64.32 0 32.64 0 0 Z " fill="#09352F" transform="translate(1047,295)"/>
<path d="M0 0 C0.91265625 0.13277344 1.8253125 0.26554687 2.765625 0.40234375 C16.88327228 2.56952645 30.17164878 7.90220285 43 14 C43.97582031 14.46019531 44.95164062 14.92039062 45.95703125 15.39453125 C56.87376313 20.94080645 66.67087971 29.07594255 75 38 C73.32818984 41.98142074 70.60681593 45.02172011 67.8125 48.25 C67.31419678 48.83136719 66.81589355 49.41273438 66.30249023 50.01171875 C64.87220694 51.67787007 63.43651773 53.33922471 62 55 C61.07960938 56.07507813 61.07960938 56.07507813 60.140625 57.171875 C59.0861618 58.39338188 58.02092802 59.60567108 56.9453125 60.80859375 C55.30674099 62.65445442 53.71040411 64.52544759 52.1171875 66.41015625 C51.05813404 67.62833702 49.9982331 68.84578151 48.9375 70.0625 C48.44258057 70.65998047 47.94766113 71.25746094 47.43774414 71.87304688 C45.96484375 73.53515625 45.96484375 73.53515625 43 76 C37.74949391 76.27346386 34.94873241 73.71353891 31.0625 70.4375 C20.93220143 62.24892799 9.62728178 56.34738966 -3 53 C-3.60303955 52.82339844 -4.2060791 52.64679688 -4.82739258 52.46484375 C-12.13283989 50.54015741 -19.42709256 50.70566902 -26.9375 50.75 C-28.24396484 50.74226563 -29.55042969 50.73453125 -30.89648438 50.7265625 C-38.18073815 50.74122632 -44.94211445 51.16483158 -52 53 C-52.99128906 53.24878906 -53.98257812 53.49757813 -55.00390625 53.75390625 C-70.45460289 58.63679817 -82.80663955 66.39632575 -94 78 C-94.61101562 78.59167969 -95.22203125 79.18335938 -95.8515625 79.79296875 C-112.33275821 96.93517499 -115.73202742 123.43442386 -115.3125 145.9765625 C-114.34952148 171.37512099 -102.81710011 192.93982382 -84.6328125 210.25390625 C-65.52049433 226.69564797 -40.45132075 231.16711681 -16 230 C-3.53663714 229.00324491 8.6728446 225.2370117 20 220 C20.59085892 219.78219879 21.18171783 219.56439758 21.79048157 219.33999634 C23.8839662 218.42193717 25.35817013 217.59870729 27 216 C28.04267447 212.75001529 27.95544129 209.59354555 27.90234375 206.203125 C27.92125671 204.94121338 27.92125671 204.94121338 27.94055176 203.65380859 C27.97738207 200.51942194 27.95385204 197.38456038 27.9375 194.25 C27.958125 187.2375 27.97875 180.225 28 173 C10.84 173 -6.32 173 -24 173 C-24 158.81 -24 144.62 -24 130 C9.99 130 43.98 130 79 130 C79.60245503 158.58760664 79.60245503 158.58760664 79.75380802 172.7467823 C79.83682182 180.39430174 79.94205465 188.03935764 80.1315918 195.68505859 C80.29772175 202.38976769 80.38433058 209.09126207 80.42315865 215.79811478 C80.45081336 218.35249403 80.5048246 220.90673196 80.58595085 223.45997238 C81.18071069 242.95935932 81.18071069 242.95935932 77.53512764 248.04252243 C74.06152258 251.33746981 70.18179166 253.44610016 65.77910614 255.25988007 C63.42804803 256.23793581 61.28280727 257.50375417 59.09765625 258.8046875 C57.75708475 259.50345565 56.41223522 260.1941008 55.0625 260.875 C54.38638672 261.225625 53.71027344 261.57625 53.01367188 261.9375 C51.6685282 262.63259817 50.31969765 263.32061415 48.96704102 264.00097656 C47.67671716 264.65630798 46.39536226 265.32967359 45.12475586 266.02246094 C35.48897126 271.16187519 24.52833976 273.3742308 14 276 C13.06736328 276.23315918 12.13472656 276.46631836 11.17382812 276.70654297 C-19.34962062 283.97856961 -55.80017039 282.60871275 -85 271 C-86.01578125 270.62101562 -87.0315625 270.24203125 -88.078125 269.8515625 C-117.76420211 258.27243818 -141.78115975 234.69108507 -157 207 C-157.47695312 206.19691406 -157.95390625 205.39382813 -158.4453125 204.56640625 C-163.80911745 194.89189941 -166.37938295 184.21407602 -169.27929688 173.60302734 C-169.86644792 171.48236188 -170.49722166 169.37381272 -171.140625 167.26953125 C-179.66495669 134.83832388 -170.73806163 97.6354358 -155 69 C-154.54367187 68.12730469 -154.08734375 67.25460937 -153.6171875 66.35546875 C-136.43791425 35.34019398 -105.09591925 13.35057768 -71.625 3.25 C-68.76257968 2.44433688 -65.88879579 1.70482646 -63 1 C-62.33403809 0.83483887 -61.66807617 0.66967773 -60.98193359 0.49951172 C-41.54274042 -4.08641163 -19.55227071 -3.69837925 0 0 Z " fill="#FDB604" transform="translate(1468,293)"/>
<path d="M0 0 C1.80485697 1.52620342 3.5971644 3.06740373 5.375 4.625 C6.13554687 5.28886719 6.89609375 5.95273437 7.6796875 6.63671875 C21.57083529 19.61332478 31.92104125 38.18925511 36.375 56.625 C36.55200439 57.31698486 36.72900879 58.00896973 36.91137695 58.72192383 C38.53070989 65.75799076 38.71423305 72.65283824 38.69067383 79.85498047 C38.68752702 81.85780274 38.71180958 83.86060659 38.73632812 85.86328125 C38.74073863 94.81660701 37.637393 102.96773434 35.375 111.625 C35.18156006 112.37023926 34.98812012 113.11547852 34.78881836 113.88330078 C27.54464908 139.869672 9.8037768 162.26416632 -13.50927734 175.71191406 C-23.14278317 181.06089817 -32.98421566 184.82001203 -43.625 187.625 C-45.01912109 187.99431641 -45.01912109 187.99431641 -46.44140625 188.37109375 C-55.04291913 190.27524546 -63.87183426 189.86762945 -72.625 189.625 C-73.67816406 189.60695313 -74.73132813 189.58890625 -75.81640625 189.5703125 C-102.57372487 188.3050151 -127.78860509 173.97643566 -145.625 154.625 C-166.99499876 130.39904172 -173.42247932 100.1521437 -171.625 68.625 C-169.23821977 45.71029434 -157.57605365 25.64404986 -142.625 8.625 C-142.11066406 8.01527344 -141.59632813 7.40554688 -141.06640625 6.77734375 C-128.81437821 -6.68397537 -109.93826024 -15.96501862 -92.625 -20.375 C-91.51125 -20.6740625 -90.3975 -20.973125 -89.25 -21.28125 C-57.63180399 -28.76977011 -25.13086537 -19.97315333 0 0 Z " fill="#0B3630" transform="translate(382.625,292.375)"/>
<path d="M0 0 C19.14 0 38.28 0 58 0 C58 39.93 58 79.86 58 121 C69.5164677 110.94216 69.5164677 110.94216 79.28515625 99.28515625 C81.51093595 96.31914002 83.90587758 93.50656913 86.3125 90.6875 C89.75038255 86.65751836 93.15777677 82.61027453 96.5 78.5 C100.24852646 73.8946675 104.07084246 69.35795556 107.91625977 64.83374023 C110.7954532 61.44045891 113.63204237 58.01732214 116.4375 54.5625 C119.86275761 50.34820984 123.38197666 46.22878133 126.9375 42.125 C131.31439587 37.0667916 135.45627189 31.88239523 139.48974609 26.54785156 C142.4807278 22.61381103 145.65438306 18.92077399 148.98046875 15.26953125 C152.14901394 11.70874836 155.12362503 7.99321011 158.1171875 4.28515625 C160 2 160 2 162 0 C164.822052 -0.24050903 164.822052 -0.24050903 168.46923828 -0.22705078 C169.13277313 -0.22734283 169.79630798 -0.22763489 170.47994995 -0.22793579 C172.67686972 -0.22654056 174.87345186 -0.21097067 177.0703125 -0.1953125 C178.59202896 -0.19158305 180.11374781 -0.18873576 181.63546753 -0.18673706 C185.64356092 -0.17909523 189.6515097 -0.15944213 193.6595459 -0.1373291 C197.74827112 -0.11688244 201.83701966 -0.10773788 205.92578125 -0.09765625 C213.95058724 -0.07619667 221.97527564 -0.04205421 230 0 C230 3 230 3 227.9375 5.25 C226.96350392 6.17215876 225.98386011 7.08837265 225 8 C221.00582384 11.78604291 217.37689051 15.6991666 213.9375 20 C209.54310852 25.46472354 204.82224294 30.56129661 200.01342773 35.66210938 C197.12046862 38.73100491 194.24769085 41.7990099 191.5 45 C188.11333375 48.93959135 184.55296245 52.71112378 181 56.5 C175.78584436 62.06650001 170.67174854 67.6833671 165.72949219 73.49365234 C159.08312787 81.30392762 152.35061558 88.99473834 145.37646484 96.51464844 C132.8022412 109.55431736 132.8022412 109.55431736 122 124 C122.40089844 124.44988281 122.80179688 124.89976562 123.21484375 125.36328125 C132.23225713 135.5666583 140.62592563 146.26932306 149 157 C149.56444824 157.72203613 150.12889648 158.44407227 150.71044922 159.18798828 C154.82127012 164.44763581 158.91847104 169.71758797 163 175 C163.49435547 175.63905273 163.98871094 176.27810547 164.49804688 176.93652344 C165.79631612 178.61990341 167.08732294 180.30851077 168.375 182 C169.08398438 182.928125 169.79296875 183.85625 170.5234375 184.8125 C172 187 172 187 172 189 C172.66 189 173.32 189 174 189 C175.33764648 190.52197266 175.33764648 190.52197266 176.87109375 192.6640625 C177.72417114 193.84210449 177.72417114 193.84210449 178.59448242 195.04394531 C179.20267822 195.89569336 179.81087402 196.74744141 180.4375 197.625 C181.71173581 199.384122 182.98779347 201.1419257 184.265625 202.8984375 C184.89919922 203.76952148 185.53277344 204.64060547 186.18554688 205.53808594 C188.61466354 208.83399719 191.13354841 212.05042068 193.6875 215.25 C197.40649007 219.92130675 200.99238251 224.66795773 204.5 229.5 C208.54769921 235.0754048 212.72405377 240.52609658 217.00244141 245.92602539 C221.4436502 251.53786586 225.74549806 257.24491221 230 263 C230.55042969 263.73605469 231.10085938 264.47210937 231.66796875 265.23046875 C235 269.75717787 235 269.75717787 235 272 C226.19437237 272.32589389 217.3908493 272.5738574 208.58048534 272.72537041 C204.48808027 272.79813505 200.39982822 272.89659314 196.30981445 273.05615234 C167.63490586 274.14592722 167.63490586 274.14592722 161.53076172 269.06079102 C159.02554148 266.25910977 157.36475662 263.28714805 155.88780212 259.84793091 C154.33191574 256.60940459 152.0107433 253.95630833 149.75 251.1875 C148.91968861 250.11205932 148.09278607 249.03397705 147.26953125 247.953125 C145.33704327 245.43856233 143.39165161 242.93522022 141.4375 240.4375 C137.66340472 235.5926149 133.98803537 230.67522833 130.3125 225.75537109 C127.81654471 222.4172166 125.31391987 219.08406033 122.8125 215.75 C121.839818 214.45314432 120.86716116 213.15626975 119.89453125 211.859375 C119.41967285 211.22644531 118.94481445 210.59351563 118.45556641 209.94140625 C117.46222469 208.61650633 116.46974876 207.29095695 115.47802734 205.96484375 C112.35003614 201.78486444 109.19107304 197.63203048 106 193.5 C101.7338716 187.97591066 97.52956388 182.40862143 93.37011719 176.80371094 C91.71222108 174.57204031 90.04430748 172.34814314 88.375 170.125 C87.81554687 169.36703125 87.25609375 168.6090625 86.6796875 167.828125 C86.133125 167.10367188 85.5865625 166.37921875 85.0234375 165.6328125 C84.53794434 164.98199707 84.05245117 164.33118164 83.55224609 163.66064453 C81.84762346 161.83698251 80.28141404 160.97370678 78 160 C77.56655273 160.40839111 77.13310547 160.81678223 76.68652344 161.23754883 C74.70963213 163.09795042 72.72984971 164.95524727 70.75 166.8125 C70.06808594 167.45509766 69.38617187 168.09769531 68.68359375 168.75976562 C67.68779297 169.69272461 67.68779297 169.69272461 66.671875 170.64453125 C66.0644043 171.21534424 65.45693359 171.78615723 64.83105469 172.37426758 C63 174 63 174 60.91868591 175.03627014 C57.84982522 178.1771768 58.43865788 181.89040588 58.4699707 186.04541016 C58.46123932 186.97083115 58.45250793 187.89625214 58.44351196 188.84971619 C58.41908486 191.91302739 58.42254978 194.97566612 58.42578125 198.0390625 C58.41334361 200.16231443 58.39901149 202.28555604 58.38285828 204.40878296 C58.34476619 210.00124221 58.32963223 215.59352416 58.32006836 221.18609619 C58.30035 230.14570644 58.24363357 239.10518097 58.19130516 248.06464767 C58.17589737 251.2029106 58.16875628 254.34110646 58.16316223 257.47940063 C58.15614955 259.39072707 58.14904892 261.30205318 58.1418457 263.21337891 C58.14263878 264.53339653 58.14263878 264.53339653 58.14344788 265.88008118 C58.1132163 271.8867837 58.1132163 271.8867837 57 273 C38.19 273 19.38 273 0 273 C0 182.91 0 92.82 0 0 Z " fill="#0A3630" transform="translate(570,295)"/>
<path d="M0 0 C1.98368439 -0.00956684 3.96722748 -0.04068821 5.95068359 -0.07226562 C32.39870111 -0.17795201 54.829702 10.99041716 73.77490234 29.05273438 C78.30424119 33.69232082 81.93963454 38.9422023 85.64990234 44.24023438 C86.22095703 44.92601562 86.79201172 45.61179687 87.38037109 46.31835938 C88.64990234 48.24023438 88.64990234 48.24023438 88.64990234 52.24023438 C89.30990234 52.24023438 89.96990234 52.24023438 90.64990234 52.24023438 C91.42630506 54.3423524 92.19567716 56.44706729 92.96240234 58.55273438 C93.60628906 60.31037109 93.60628906 60.31037109 94.26318359 62.10351562 C94.72937704 63.48109014 95.19132166 64.86010698 95.64990234 66.24023438 C95.92189453 67.00432617 96.19388672 67.76841797 96.47412109 68.55566406 C99.01061526 76.48220834 99.10792425 84.28389735 99.04101562 92.51708984 C99.02507015 94.84077987 99.04086314 97.16269392 99.06005859 99.48632812 C99.10178894 127.75835531 90.2635075 152.7989222 70.57177734 173.41601562 C64.34926043 179.35045305 57.15852262 183.16950174 49.64990234 187.24023438 C48.55677734 187.92214844 47.46365234 188.6040625 46.33740234 189.30664062 C42.06377029 191.75568276 37.53961211 192.81021949 32.77490234 193.92773438 C31.92798828 194.13978516 31.08107422 194.35183594 30.20849609 194.5703125 C9.91312581 199.49652412 -18.24331714 200.23006536 -37.03759766 189.74023438 C-38.18228516 188.99773437 -38.18228516 188.99773437 -39.35009766 188.24023438 C-40.95111328 187.58667969 -40.95111328 187.58667969 -42.58447266 186.91992188 C-46.35530295 185.32941694 -49.56349641 183.22693514 -52.91259766 180.86523438 C-53.98638672 180.115 -55.06017578 179.36476563 -56.16650391 178.59179688 C-76.76093231 163.37971602 -89.77310928 139.04734679 -93.66259766 113.92773438 C-96.52624303 87.74190027 -92.92718814 58.75415034 -75.96484375 37.50488281 C-70.01946587 30.50084664 -63.42755439 24.09509782 -56.35009766 18.24023438 C-55.62306641 17.60214844 -54.89603516 16.9640625 -54.14697266 16.30664062 C-50.48857454 13.603718 -46.63963635 11.68380465 -42.53759766 9.74023438 C-41.70607178 9.34513672 -40.8745459 8.95003906 -40.01782227 8.54296875 C-32.30164637 5.00164704 -24.6550351 2.93142164 -16.35009766 1.24023438 C-15.75688721 1.06588867 -15.16367676 0.89154297 -14.55249023 0.71191406 C-9.8030932 -0.30524979 -4.83795971 0.01404682 0 0 Z " fill="#FDB604" transform="translate(1668.35009765625,373.759765625)"/>
<path d="M0 0 C0.65897278 0.00465271 1.31794556 0.00930542 1.99688721 0.01409912 C11.71242517 0.09450479 20.80038268 0.45136702 30.125 3.375 C30.75438477 3.56835938 31.38376953 3.76171875 32.03222656 3.9609375 C45.78255036 8.29680602 57.85887746 15.40808614 69.125 24.375 C68.64585966 29.0879986 66.46117516 31.99374981 63.5625 35.5625 C62.64842351 36.70702007 61.73436118 37.85155146 60.8203125 38.99609375 C60.36430664 39.56183105 59.90830078 40.12756836 59.43847656 40.71044922 C58.22742599 42.24519695 57.07544814 43.82607082 55.9296875 45.41015625 C55.27226563 46.30605469 54.61484375 47.20195312 53.9375 48.125 C53.36644531 48.92421875 52.79539062 49.7234375 52.20703125 50.546875 C49.12321086 53.25461973 47.22625392 53.40790876 43.125 53.375 C39.59979076 52.26751128 36.33115226 50.71339787 33 49.125 C18.85624059 42.74480809 3.50949151 37.83049019 -11.875 43.375 C-14.0109657 44.57849035 -15.89049924 45.92292628 -17.875 47.375 C-18.535 47.375 -19.195 47.375 -19.875 47.375 C-21.78718559 51.7617787 -22.04230997 55.35956073 -21.84765625 60.03125 C-19.85264627 64.83850296 -15.79261299 67.47959214 -11.18334961 69.63183594 C-8.0836363 70.84021172 -4.96542587 71.93834853 -1.8125 73 C-0.13849121 73.58346191 -0.13849121 73.58346191 1.56933594 74.17871094 C8.34864417 76.51606335 15.14733346 78.61209673 22.06640625 80.4921875 C35.4473637 84.35437956 47.53996475 90.29637394 58.125 99.375 C59.06666016 100.15617187 59.06666016 100.15617187 60.02734375 100.953125 C65.4090182 105.80487527 68.31395873 111.76948817 71.125 118.375 C71.68767578 119.67630859 71.68767578 119.67630859 72.26171875 121.00390625 C76.37732867 137.07526988 73.60146193 153.91539568 65.56640625 168.1328125 C64.18164525 170.31246229 62.71452298 172.34199133 61.125 174.375 C60.403125 175.385625 59.68125 176.39625 58.9375 177.4375 C48.50141064 189.47401201 33.28097957 195.36711519 18.125 198.375 C16.99191406 198.601875 15.85882812 198.82875 14.69140625 199.0625 C-21.34020995 205.17386953 -51.53694738 193.54237504 -80.875 173.375 C-80.33021061 169.53427663 -79.36401899 167.26155457 -76.9609375 164.23046875 C-76.36410156 163.47056641 -75.76726562 162.71066406 -75.15234375 161.92773438 C-74.52457031 161.14720703 -73.89679688 160.36667969 -73.25 159.5625 C-72.64542969 158.79357422 -72.04085938 158.02464844 -71.41796875 157.23242188 C-69.59313227 154.92705809 -67.73987638 152.64805558 -65.875 150.375 C-64.94892944 149.22354492 -64.94892944 149.22354492 -64.00415039 148.04882812 C-63.10297485 146.96311523 -63.10297485 146.96311523 -62.18359375 145.85546875 C-61.65048584 145.20602295 -61.11737793 144.55657715 -60.56811523 143.88745117 C-58.54854502 142.08337944 -57.2306014 141.76279819 -54.5625 141.5 C-49.83702753 141.94549909 -46.57386946 144.08938776 -42.671875 146.65234375 C-37.38371789 149.90943493 -31.65132705 152.13452532 -25.875 154.375 C-24.58722656 154.89126953 -24.58722656 154.89126953 -23.2734375 155.41796875 C-12.25215276 159.14421264 2.56733617 159.74969111 13.1875 154.6875 C17.63992921 152.1572649 21.26624036 149.11552257 22.83984375 144.09375 C23.20579057 140.44712199 23.38087179 138.01467948 22 134.5625 C12.44501272 123.41501484 -5.60093188 120.00073808 -19.1315918 115.77587891 C-39.30253467 109.44916011 -57.44717857 101.24436593 -68.19140625 82.01953125 C-73.78713246 70.3531648 -75.10511249 55.5283078 -71.3125 43.125 C-64.87884244 26.51036152 -53.62455385 14.51367408 -37.60546875 6.80078125 C-25.23380698 1.81920523 -13.301636 -0.14766394 0 0 Z " fill="#0A352F" transform="translate(1200.875,371.625)"/>
<path d="M0 0 C0.85570084 -0.00570007 1.71140167 -0.01140015 2.59303284 -0.01727295 C4.40453859 -0.02672599 6.21606157 -0.03325814 8.02758789 -0.03710938 C10.80189891 -0.0468242 13.57547203 -0.07784791 16.34960938 -0.109375 C18.10806851 -0.11590409 19.86653295 -0.12115493 21.625 -0.125 C22.45631943 -0.1373468 23.28763885 -0.1496936 24.14414978 -0.16241455 C29.93085167 -0.13998095 29.93085167 -0.13998095 32.1219635 1.53790283 C33.37890625 3.203125 33.37890625 3.203125 33.37890625 6.203125 C34.55864014 6.17955933 34.55864014 6.17955933 35.76220703 6.15551758 C39.34269963 6.09296585 42.92307701 6.05406949 46.50390625 6.015625 C48.36015625 5.97791992 48.36015625 5.97791992 50.25390625 5.93945312 C51.45273437 5.92978516 52.6515625 5.92011719 53.88671875 5.91015625 C54.9864502 5.8944458 56.08618164 5.87873535 57.21923828 5.86254883 C62.09436274 6.38803165 65.33534236 8.10315225 68.69140625 11.640625 C71.10469754 15.30525252 71.50157071 18.34945548 71.5328064 22.68139648 C71.54140686 23.57301483 71.55000732 24.46463318 71.55886841 25.38327026 C71.56312836 26.35378326 71.56738831 27.32429626 71.57177734 28.32421875 C71.58404358 29.86627487 71.58404358 29.86627487 71.59655762 31.43948364 C71.62136307 34.83985819 71.63791099 38.24019127 71.65234375 41.640625 C71.65766743 42.80141571 71.6629911 43.96220642 71.6684761 45.15817261 C71.6951804 51.29652241 71.71456822 57.43485203 71.72900391 63.57324219 C71.74568901 69.92233062 71.79050728 76.27090376 71.84137535 82.61979675 C71.87496209 87.49589664 71.88657163 92.37187254 71.89223099 97.24807739 C71.89896195 99.58932456 71.91423147 101.93056305 71.9381218 104.271698 C71.96960527 107.54224339 71.96983558 110.81137524 71.96240234 114.08203125 C71.97880768 115.05254425 71.99521301 116.02305725 72.01211548 117.02297974 C71.95127559 123.54411683 71.95127559 123.54411683 69.09243774 126.83569336 C66.37890625 128.203125 66.37890625 128.203125 62.37890625 128.203125 C62.4253125 129.02296875 62.47171875 129.8428125 62.51953125 130.6875 C62.555625 131.76515625 62.59171875 132.8428125 62.62890625 133.953125 C62.6753125 135.02046875 62.72171875 136.0878125 62.76953125 137.1875 C62.37890625 140.203125 62.37890625 140.203125 60.8359375 142.56640625 C57.41315835 144.84644515 54.89658795 144.70045171 50.81640625 144.640625 C50.14416016 144.64771484 49.47191406 144.65480469 48.77929688 144.66210938 C44.44525975 144.60615855 43.58673194 144.41095069 40.37890625 141.203125 C40.37890625 136.913125 40.37890625 132.623125 40.37890625 128.203125 C20.57890625 128.203125 0.77890625 128.203125 -19.62109375 128.203125 C-19.62109375 132.163125 -19.62109375 136.123125 -19.62109375 140.203125 C-23.62109375 144.203125 -23.62109375 144.203125 -26.96875 144.69921875 C-28.19464844 144.67988281 -29.42054688 144.66054688 -30.68359375 144.640625 C-32.52630859 144.63869141 -32.52630859 144.63869141 -34.40625 144.63671875 C-37.62109375 144.203125 -37.62109375 144.203125 -39.54296875 143.09375 C-41.17687678 140.22849099 -40.90547584 137.7773219 -40.80859375 134.515625 C-40.78152344 133.33613281 -40.75445312 132.15664063 -40.7265625 130.94140625 C-40.69175781 130.03777344 -40.65695312 129.13414062 -40.62109375 128.203125 C-41.54921875 128.120625 -42.47734375 128.038125 -43.43359375 127.953125 C-46.62109375 127.203125 -46.62109375 127.203125 -48.29650307 125.43292809 C-49.77276519 122.94780277 -49.99780105 121.63828082 -50.00204468 118.77627563 C-50.01050415 117.89596176 -50.01896362 117.01564789 -50.02767944 116.10865784 C-50.0185704 114.67162758 -50.0185704 114.67162758 -50.00927734 113.20556641 C-50.0145343 112.19049515 -50.01979126 111.17542389 -50.02520752 110.1295929 C-50.03842038 106.77113494 -50.02966331 103.41315036 -50.01953125 100.0546875 C-50.02155192 97.72065134 -50.0244633 95.38661579 -50.02822876 93.05258179 C-50.03265413 88.15836584 -50.02621522 83.26431406 -50.01220703 78.37011719 C-49.99513416 72.09979966 -50.00494323 65.82986789 -50.02292442 59.55956459 C-50.03377255 54.73826194 -50.03031081 49.9170505 -50.02254105 45.09574509 C-50.02054091 42.78410166 -50.02299174 40.47244993 -50.02997971 38.16081619 C-50.03760876 34.92681249 -50.02596808 31.69343016 -50.00927734 28.45947266 C-50.01535004 27.50550095 -50.02142273 26.55152924 -50.02767944 25.56864929 C-49.96294027 18.78857004 -48.73225996 14.57818698 -44.12109375 9.390625 C-40.27516688 6.02543899 -37.36011639 6.08228452 -32.421875 6.10546875 C-31.21337891 6.10869141 -30.00488281 6.11191406 -28.75976562 6.11523438 C-27.49712891 6.12361328 -26.23449219 6.13199219 -24.93359375 6.140625 C-23.02223633 6.14739258 -23.02223633 6.14739258 -21.07226562 6.15429688 C-17.92182811 6.16609627 -14.77148426 6.18255903 -11.62109375 6.203125 C-11.43546875 4.9965625 -11.43546875 4.9965625 -11.24609375 3.765625 C-11.03984375 2.92 -10.83359375 2.074375 -10.62109375 1.203125 C-7.31662482 -0.44910947 -3.63355481 0.01853037 0 0 Z " fill="#F7F9F8" transform="translate(305.62109375,301.796875)"/>
<path d="M0 0 C17.49 0 34.98 0 53 0 C53 63.03 53 126.06 53 191 C35.51 191 18.02 191 0 191 C0 127.97 0 64.94 0 0 Z " fill="#0A3630" transform="translate(821,377)"/>
<path d="M0 0 C11.54897178 9.941972 17.62685784 21.43179472 19.0625 36.6875 C20.11366825 54.69632827 18.95854997 72.59373764 7.375 87.375 C-1.25114866 96.65796201 -11.73350728 101.36436382 -24.2734375 102.06640625 C-33.97910038 102.3752303 -43.22307811 102.49599351 -51.9375 97.6875 C-53.05125 97.07455078 -53.05125 97.07455078 -54.1875 96.44921875 C-56.17111916 95.27144487 -58.05347213 94.01714725 -59.9375 92.6875 C-60.783125 92.130625 -61.62875 91.57375 -62.5 91 C-69.9407041 83.94087047 -73.78019265 75.30132352 -76.9375 65.6875 C-77.30488281 64.61757813 -77.67226562 63.54765625 -78.05078125 62.4453125 C-81.57382744 47.51504626 -79.63366016 29.55591871 -72.75 15.8125 C-65.80342294 4.70222538 -56.45942302 -3.4122289 -43.9375 -7.3125 C-28.72148216 -10.44455623 -12.82093505 -9.39483644 0 0 Z " fill="#FEFDFB" transform="translate(1700.9375,425.3125)"/>
<path d="M0 0 C1.33802284 1.18000872 2.65228696 2.38768309 3.9375 3.625 C4.57042969 4.19347656 5.20335937 4.76195312 5.85546875 5.34765625 C13.71742821 12.70671852 18.34241798 21.3256308 19.22460938 32.14672852 C19.32021388 35.422231 19.35939165 38.6881315 19.32861328 41.96484375 C19.312577 43.99027409 19.32851195 46.0136937 19.34765625 48.0390625 C19.30520771 62.47156687 16.74607699 73.97711339 6.90234375 84.87890625 C-3.65554304 94.97692139 -16.25981169 99.07040254 -30.54663086 99.06103516 C-40.5377889 98.80693984 -49.94691392 94.69620613 -57.0625 87.625 C-62.70201754 80.79231148 -67.40536392 73.82701517 -69.6875 65.1875 C-69.92726563 64.30191406 -70.16703125 63.41632813 -70.4140625 62.50390625 C-74.30428206 45.23226883 -72.88482018 26.74557774 -63.71875 11.37109375 C-56.61772255 1.29157978 -47.20995398 -5.56420132 -35.00390625 -7.98046875 C-22.87162794 -9.60777301 -9.96775679 -7.54823292 0 0 Z " fill="#FBFCFC" transform="translate(1028.0625,424.375)"/>
<path d="M0 0 C7.48542412 4.39598544 11.38177377 9.49172667 14.3984375 17.63671875 C16.20228439 26.35531204 15.34646754 33.90501843 10.7421875 41.6171875 C6.00515943 48.28701239 -0.08166235 52.67175203 -7.8515625 55.26171875 C-19.14950165 56.08806682 -27.22005667 55.22236635 -36.1640625 47.94921875 C-41.61839297 42.87441425 -45.32768673 36.54643046 -46.07421875 29.015625 C-46.37172945 20.72413121 -44.96365501 13.39352764 -39.6015625 6.88671875 C-29.47056214 -3.69217847 -13.23844736 -6.26737126 0 0 Z " fill="#0C3731" transform="translate(863.8515625,292.73828125)"/>
<path d="M0 0 C0.80892197 -0.0112793 1.61784393 -0.02255859 2.45127869 -0.03417969 C3.32985535 -0.02608276 4.20843201 -0.01798584 5.1136322 -0.00964355 C6.0457402 -0.01665283 6.97784821 -0.02366211 7.9382019 -0.03088379 C11.01903577 -0.04848837 14.09895112 -0.03683304 17.17979431 -0.02331543 C19.31923601 -0.0260094 21.45867651 -0.02989103 23.59811401 -0.03491211 C28.08126994 -0.04081032 32.56410707 -0.03223276 37.04722595 -0.0135498 C42.80006018 0.00925345 48.55214856 -0.00389036 54.30495548 -0.02783966 C58.72212367 -0.04227703 63.1391143 -0.03770132 67.55628777 -0.02732849 C69.67782618 -0.02465622 71.79938062 -0.02794845 73.92090034 -0.0372467 C76.88271579 -0.04737973 79.84331394 -0.03195712 82.80503845 -0.00964355 C84.12593979 -0.02178894 84.12593979 -0.02178894 85.473526 -0.03417969 C86.68267921 -0.01726074 86.68267921 -0.01726074 87.91625977 0 C88.61623612 0.0015081 89.31621248 0.0030162 90.03740025 0.00457001 C91.89463806 0.50793457 91.89463806 0.50793457 94.89463806 4.50793457 C94.89463806 11.43793457 94.89463806 18.36793457 94.89463806 25.50793457 C60.90463806 25.50793457 26.91463806 25.50793457 -8.10536194 25.50793457 C-8.10536194 0.01745364 -8.10536194 0.01745364 0 0 Z " fill="#0D3833" transform="translate(273.10536193847656,317.4920654296875)"/>
<path d="M0 0 C34.32 0 68.64 0 104 0 C104 1.65 104 3.3 104 5 C69.68 5 35.36 5 0 5 C0 3.35 0 1.7 0 0 Z " fill="#153E39" transform="translate(265,386)"/>
<path d="M0 0 C0.76441406 -0.0103125 1.52882813 -0.020625 2.31640625 -0.03125 C4.4375 0.5 4.4375 0.5 6.1953125 1.93359375 C8.11593204 5.9016662 7.83152119 9.71579017 7.75 14.0625 C7.75483398 15.35704102 7.75483398 15.35704102 7.75976562 16.67773438 C7.70488366 23.09892451 7.70488366 23.09892451 5.4375 26.5 C1.84485548 27.69754817 -0.78967474 27.83094958 -4.5625 27.5 C-6.75390625 26.07421875 -6.75390625 26.07421875 -8.5625 23.5 C-9.153665 20.32272514 -9.12083891 17.22322494 -9.0625 14 C-9.07796875 13.14535156 -9.0934375 12.29070312 -9.109375 11.41015625 C-9.08505833 7.51341063 -9.04670692 5.21060344 -6.81640625 1.9375 C-4.30428226 0.33531347 -2.95824528 -0.04004393 0 0 Z " fill="#F6F8F7" transform="translate(390.5625,348.5)"/>
<path d="M0 0 C0.76183594 -0.0309375 1.52367187 -0.061875 2.30859375 -0.09375 C4.5625 0.5 4.5625 0.5 6.8203125 2.4609375 C9.1980704 6.60868558 9.11680649 9.93013289 9 14.625 C9.00708984 15.43582031 9.01417969 16.24664062 9.02148438 17.08203125 C8.95785652 23.0043166 8.95785652 23.0043166 7.18383789 25.22851562 C4.94300914 26.98581665 3.38023551 26.90015835 0.5625 26.875 C-0.30375 26.88273437 -1.17 26.89046875 -2.0625 26.8984375 C-4.9441612 26.41500092 -5.65798107 25.77568845 -7.4375 23.5 C-7.82568359 21.37109375 -7.82568359 21.37109375 -7.8359375 18.9375 C-7.83980469 18.05835938 -7.84367188 17.17921875 -7.84765625 16.2734375 C-7.83605469 15.35820312 -7.82445312 14.44296875 -7.8125 13.5 C-7.82990234 12.12714844 -7.82990234 12.12714844 -7.84765625 10.7265625 C-7.84378906 9.84742188 -7.83992187 8.96828125 -7.8359375 8.0625 C-7.83086182 6.85787109 -7.83086182 6.85787109 -7.82568359 5.62890625 C-7.0125186 1.16928438 -4.21673696 0.05688684 0 0 Z " fill="#F4F6F5" transform="translate(242.4375,348.5)"/>
<path d="M0 0 C2.80703896 1.34040619 3.86054551 2.54745461 6 5 C7.18529129 8.90448895 7.42422013 10.96301745 5.875 14.75 C2.98064497 18.22322604 0.55559378 19.76831582 -3.9375 20.4375 C-7.8124426 19.88393677 -9.95425348 18.40826469 -13 16 C-14.60086627 12.79826746 -14.49917089 9.47422941 -14 6 C-10.35661114 0.29202412 -6.68567832 -1.07913546 0 0 Z " fill="#143D38" transform="translate(358,398)"/>
<path d="M0 0 C3.0625 1.9375 3.0625 1.9375 5 5 C5.69022545 8.15450142 5.73034598 10.85038296 5 14 C2.81840855 16.75569447 1.12822506 18.43588747 -2 20 C-5.3125 20.375 -5.3125 20.375 -9 20 C-11.63016161 17.8272578 -13.47336894 16.05326212 -15 13 C-15.39447548 8.81855989 -15.45035186 6.69053952 -13.125 3.125 C-9.25066951 -0.74933049 -5.26519502 -0.77162341 0 0 Z " fill="#133D38" transform="translate(284,398)"/>
<path d="M0 0 C1.00160156 0.02102783 1.00160156 0.02102783 2.0234375 0.04248047 C3.93299645 0.08823818 5.84163253 0.16849681 7.75 0.25 C9.41289062 0.31960938 9.41289062 0.31960938 11.109375 0.390625 C14.5524011 1.11645212 15.79454127 2.32347242 18 5 C11.5845666 5.12579281 11.5845666 5.12579281 8.66625977 4.49780273 C5.55795926 3.917469 2.68868574 3.92200755 -0.47265625 3.97265625 C-1.70177734 3.98490234 -2.93089844 3.99714844 -4.19726562 4.00976562 C-6.77805022 4.04497593 -9.35878494 4.08405033 -11.93945312 4.12695312 C-13.16728516 4.13791016 -14.39511719 4.14886719 -15.66015625 4.16015625 C-17.34057007 4.18541382 -17.34057007 4.18541382 -19.05493164 4.21118164 C-21.94244239 4.00412728 -23.56345581 3.50406252 -26 2 C-17.35306332 -0.32802141 -8.86460081 -0.26753905 0 0 Z " fill="#F7B909" transform="translate(321,266)"/>
<path d="M0 0 C0.33 0 0.66 0 1 0 C1.66 6.27 2.32 12.54 3 19 C5.97 19.33 8.94 19.66 12 20 C12.66 20.66 13.32 21.32 14 22 C10.40735548 23.19754817 7.77282526 23.33094958 4 23 C1.79296875 21.58984375 1.79296875 21.58984375 0 19 C-0.48904032 15.73608073 -0.3763828 12.54081362 -0.25 9.25 C-0.23195313 8.36183594 -0.21390625 7.47367187 -0.1953125 6.55859375 C-0.14827374 4.37129152 -0.08257009 2.18620184 0 0 Z " fill="#CDD6D5" transform="translate(382,353)"/>
<path d="M0 0 C1.9490625 0.309375 1.9490625 0.309375 3.9375 0.625 C4.2675 1.615 4.5975 2.605 4.9375 3.625 C1.6375 3.625 -1.6625 3.625 -5.0625 3.625 C-5.7225 4.945 -6.3825 6.265 -7.0625 7.625 C-8.35720975 8.99586915 -9.68400897 10.33840837 -11.0625 11.625 C-12.0525 11.295 -13.0425 10.965 -14.0625 10.625 C-5.96530754 -0.09468742 -5.96530754 -0.09468742 0 0 Z " fill="#214541" transform="translate(1147.0625,513.375)"/>
<path d="M0 0 C0.33 0 0.66 0 1 0 C2.08269792 12.37369047 2.08269792 12.37369047 1.92578125 18.31640625 C1.90902344 19.02474609 1.89226562 19.73308594 1.875 20.46289062 C1.81504109 22.47713518 1.73033135 24.4905969 1.64453125 26.50390625 C2.05758783 30.56638581 3.18730704 32.12099601 6 35 C4.66666667 35 3.33333333 35 2 35 C1.505 37.475 1.505 37.475 1 40 C0.67 40 0.34 40 0 40 C0 26.8 0 13.6 0 0 Z " fill="#13403C" transform="translate(379,340)"/>
<path d="M0 0 C-3.33881127 3.84597247 -7.08321823 4.43111616 -12 5 C-14.44792221 4.88406926 -16.59167549 4.51240947 -19 4 C-13.29748376 0.19832251 -6.72147407 -0.28602017 0 0 Z M-19 5 C-17 6 -17 6 -17 6 Z " fill="#FCBE23" transform="translate(296,209)"/>
<path d="M0 0 C0.33 0 0.66 0 1 0 C1.02505615 0.64026123 1.0501123 1.28052246 1.07592773 1.94018555 C1.1923546 4.85613726 1.31486867 7.7718029 1.4375 10.6875 C1.47681641 11.69490234 1.51613281 12.70230469 1.55664062 13.74023438 C1.59853516 14.71669922 1.64042969 15.69316406 1.68359375 16.69921875 C1.72025146 17.59471436 1.75690918 18.49020996 1.79467773 19.4128418 C1.94086508 22.01922709 1.94086508 22.01922709 2.57836914 24.59301758 C3.18528632 28.05775208 2.09534666 30.71396003 1 34 C-1.51314157 30.23028765 -1.15974372 28.41372106 -0.9765625 23.92578125 C-0.93902359 22.90003242 -0.93902359 22.90003242 -0.90072632 21.8535614 C-0.81865275 19.67269371 -0.72201736 17.49274903 -0.625 15.3125 C-0.56674731 13.83271981 -0.5094443 12.35290191 -0.453125 10.87304688 C-0.3130945 7.24819578 -0.15999996 3.62403076 0 0 Z " fill="#4E6D69" transform="translate(1047,458)"/>
<path d="M0 0 C-2 3 -2 3 -4.9375 3.75 C-8 4 -8 4 -11 3 C-11 3.66 -11 4.32 -11 5 C-11.99 5.33 -12.98 5.66 -14 6 C-14.66 5.34 -15.32 4.68 -16 4 C-13.90049414 3.13444052 -11.7952093 2.28288723 -9.6875 1.4375 C-8.51574219 0.96183594 -7.34398437 0.48617188 -6.13671875 -0.00390625 C-3 -1 -3 -1 0 0 Z M-10 4 C-8 5 -8 5 -8 5 Z " fill="#2C534F" transform="translate(973,375)"/>
<path d="M0 0 C0.98291016 0.04833984 1.96582031 0.09667969 2.97851562 0.14648438 C4.51475586 0.2305957 4.51475586 0.2305957 6.08203125 0.31640625 C7.11779297 0.36861328 8.15355469 0.42082031 9.22070312 0.47460938 C11.77895174 0.60429018 14.33681063 0.73925603 16.89453125 0.87890625 C16.89453125 1.20890625 16.89453125 1.53890625 16.89453125 1.87890625 C13.47880795 2.10524936 10.06205803 2.30682738 6.64453125 2.50390625 C5.19240234 2.60058594 5.19240234 2.60058594 3.7109375 2.69921875 C2.77636719 2.75078125 1.84179688 2.80234375 0.87890625 2.85546875 C0.02006836 2.90783691 -0.83876953 2.96020508 -1.72363281 3.01416016 C-4.33426272 2.86591405 -5.87490731 2.20189107 -8.10546875 0.87890625 C-5.02085369 -0.14929877 -3.20861636 -0.16692224 0 0 Z " fill="#D1A211" transform="translate(303.10546875,267.12109375)"/>
<path d="M0 0 C0 0.99 0 1.98 0 3 C-1.55966218 3.508783 -3.12289241 4.00663469 -4.6875 4.5 C-5.99267578 4.91765625 -5.99267578 4.91765625 -7.32421875 5.34375 C-9.99391677 5.99850805 -12.26396684 6.11831495 -15 6 C-15 5.34 -15 4.68 -15 4 C-12.87607494 3.3299166 -10.75082476 2.66403203 -8.625 2 C-7.44164062 1.62875 -6.25828125 1.2575 -5.0390625 0.875 C-2 0 -2 0 0 0 Z " fill="#234A45" transform="translate(1023,518)"/>
<path d="M0 0 C-1 3 -1 3 -2.77734375 4.203125 C-3.49019531 4.54859375 -4.20304687 4.8940625 -4.9375 5.25 C-6.00291016 5.78367187 -6.00291016 5.78367187 -7.08984375 6.328125 C-7.72019531 6.54984375 -8.35054687 6.7715625 -9 7 C-11 6 -11 6 -12 4 C-10.56570999 3.32645501 -9.12742943 2.66140299 -7.6875 2 C-6.88699219 1.62875 -6.08648438 1.2575 -5.26171875 0.875 C-3 0 -3 0 0 0 Z " fill="#F9B819" transform="translate(1516,555)"/>
<path d="M0 0 C-3.46008142 2.30672095 -5.92481479 2.48134006 -10 3 C-10.99 3.495 -10.99 3.495 -12 4 C-12.66 3.34 -13.32 2.68 -14 2 C-8.77729131 -0.66464729 -5.9180497 -1.32854177 0 0 Z " fill="#FCC02E" transform="translate(1643,380)"/>
<path d="M0 0 C0.33 0.99 0.66 1.98 1 3 C-0.109375 4.8671875 -0.109375 4.8671875 -1.75 6.875 C-4.08206727 9.81448945 -6.15552905 12.72094053 -8 16 C-8.66 15.67 -9.32 15.34 -10 15 C-5.05 7.575 -5.05 7.575 0 0 Z " fill="#FDF3D7" transform="translate(343,616)"/>
<path d="M0 0 C0.66 0.99 1.32 1.98 2 3 C2.66 2.67 3.32 2.34 4 2 C4 4.31 4 6.62 4 9 C3.34 8.34 2.68 7.68 2 7 C1.67 10.3 1.34 13.6 1 17 C0.34 16.67 -0.32 16.34 -1 16 C-0.67 10.72 -0.34 5.44 0 0 Z " fill="#103F3B" transform="translate(251,356)"/>
<path d="M0 0 C3.9252025 3.70090521 6.94580156 7.54959656 10 12 C9.01 12 8.02 12 7 12 C6.67 10.68 6.34 9.36 6 8 C5.34 8 4.68 8 4 8 C2.2856382 6.04072937 0.61594832 4.04119788 -1 2 C-0.67 1.34 -0.34 0.68 0 0 Z " fill="#1C3E3B" transform="translate(753,498)"/>
<path d="M0 0 C1.4391134 0.28359887 2.87625518 0.57721399 4.3125 0.875 C5.11300781 1.03742188 5.91351562 1.19984375 6.73828125 1.3671875 C9 2 9 2 12 4 C8.10885099 5.01911045 6.39403493 5.16782969 2.625 3.5625 C1.75875 3.046875 0.8925 2.53125 0 2 C0 1.34 0 0.68 0 0 Z " fill="#254A45" transform="translate(1195,444)"/>
<path d="M0 0 C-1 2 -1 2 -3.28515625 2.8515625 C-4.65994141 3.23441406 -4.65994141 3.23441406 -6.0625 3.625 C-6.98160156 3.88539063 -7.90070313 4.14578125 -8.84765625 4.4140625 C-9.55792969 4.60742188 -10.26820313 4.80078125 -11 5 C-11.66 4.34 -12.32 3.68 -13 3 C-11.40084119 2.30093058 -9.79544955 1.61610532 -8.1875 0.9375 C-7.29417969 0.55464844 -6.40085937 0.17179688 -5.48046875 -0.22265625 C-3 -1 -3 -1 0 0 Z " fill="#FCB712" transform="translate(269,216)"/>
<path d="M0 0 C-1.39332574 3.36720387 -2.9789286 4.9859524 -6 7 C-6.66 6.67 -7.32 6.34 -8 6 C-6.24081631 1.94034532 -4.71412298 0 0 0 Z " fill="#25504D" transform="translate(353,398)"/>
<path d="M0 0 C0.66 0 1.32 0 2 0 C2.21192221 5.19209404 1.5912689 9.126739 0 14 C-0.33 14 -0.66 14 -1 14 C-1.027193 12.41676312 -1.04648306 10.83338938 -1.0625 9.25 C-1.07410156 8.36828125 -1.08570313 7.4865625 -1.09765625 6.578125 C-1.00826198 4.2181162 -0.66912821 2.25501476 0 0 Z " fill="#1B402E" transform="translate(418,390)"/>
<path d="M0 0 C0 4.07546013 -1.55304448 5.80536362 -4 9 C-6.25 10.375 -6.25 10.375 -8 11 C-6.63629701 8.00779732 -5.05091917 5.70973471 -2.875 3.25 C-2.33617187 2.63640625 -1.79734375 2.0228125 -1.2421875 1.390625 C-0.62730469 0.70226562 -0.62730469 0.70226562 0 0 Z " fill="#19392B" transform="translate(241,300)"/>
<path d="M0 0 C0 0.66 0 1.32 0 2 C-6.625 3.25 -6.625 3.25 -10 1 C-3.71428571 -1.42857143 -3.71428571 -1.42857143 0 0 Z M-9 3 C-7 4 -7 4 -7 4 Z " fill="#28504C" transform="translate(1177,376)"/>
<path d="M0 0 C2.875 0.875 2.875 0.875 4.875 3.875 C0.71361737 3.95659574 -3.0722484 3.85748524 -7.125 2.875 C-4.59222776 0.43964208 -3.5859098 -0.14343639 0 0 Z " fill="#D3A413" transform="translate(334.125,267.125)"/>
<path d="M0 0 C0.66 0.33 1.32 0.66 2 1 C-0.97 4.3 -3.94 7.6 -7 11 C-7.66 10.67 -8.32 10.34 -9 10 C-7.8758824 8.70756532 -6.75067408 7.41607925 -5.625 6.125 C-4.99851562 5.40570313 -4.37203125 4.68640625 -3.7265625 3.9453125 C-2.52573166 2.5923402 -1.2791655 1.2791655 0 0 Z " fill="#E8EEED" transform="translate(974,425)"/>
<path d="M0 0 C2.72574271 0.37330824 3.80822085 0.79194601 5.703125 2.84765625 C6.21359375 3.57855469 6.7240625 4.30945313 7.25 5.0625 C8.03117188 6.16271484 8.03117188 6.16271484 8.828125 7.28515625 C9.21484375 7.85105469 9.6015625 8.41695312 10 9 C9.01 9.495 9.01 9.495 8 10 C6.85157077 8.71064081 5.70633773 7.41843421 4.5625 6.125 C3.92441406 5.40570312 3.28632812 4.68640625 2.62890625 3.9453125 C1 2 1 2 0 0 Z " fill="#153732" transform="translate(792,552)"/>
<path d="M0 0 C0.99 0.33 1.98 0.66 3 1 C0.42215154 3.64752004 -1.91648098 5.94432065 -5 8 C-5 5 -5 5 -2.5 2.3125 C-1.675 1.549375 -0.85 0.78625 0 0 Z " fill="#1A413C" transform="translate(1147,389)"/>
<path d="M0 0 C0.66 0.33 1.32 0.66 2 1 C1.67 1.99 1.34 2.98 1 4 C-1.5625 5.1875 -1.5625 5.1875 -4 6 C-4.66 5.34 -5.32 4.68 -6 4 C-4.02 2.68 -2.04 1.36 0 0 Z " fill="#315853" transform="translate(1160,380)"/>
<path d="M0 0 C0.66 0.33 1.32 0.66 2 1 C-0.31 3.64 -2.62 6.28 -5 9 C-5.66 8.34 -6.32 7.68 -7 7 C-4.69 4.69 -2.38 2.38 0 0 Z " fill="#FCBA22" transform="translate(1343,325)"/>
<path d="M0 0 C0.66 0.99 1.32 1.98 2 3 C0.625 6.6875 0.625 6.6875 -1 10 C-1.66 9.01 -2.32 8.02 -3 7 C-1.625 3.3125 -1.625 3.3125 0 0 Z " fill="#19423E" transform="translate(915,422)"/>
<path d="M0 0 C0.66 0.66 1.32 1.32 2 2 C0.68 3.65 -0.64 5.3 -2 7 C-2.99 6.67 -3.98 6.34 -5 6 C-3.35 4.02 -1.7 2.04 0 0 Z " fill="#244D49" transform="translate(828,296)"/>
<path d="M0 0 C2.97 0.33 5.94 0.66 9 1 C5.77208445 3.1519437 4.71599191 3.20086443 1 3 C0.67 2.01 0.34 1.02 0 0 Z " fill="#FCBB14" transform="translate(337,209)"/>
<path d="M0 0 C0.33 0 0.66 0 1 0 C1.33 3.3 1.66 6.6 2 10 C1.01 10.495 1.01 10.495 0 11 C-0.84098656 6.98195309 -1.05404945 3.98196457 0 0 Z " fill="#153F3A" transform="translate(907,483)"/>
<path d="M0 0 C-5.23420787 3.27137992 -8.16605611 3.10643764 -14 2 C-14 1.67 -14 1.34 -14 1 C-12.41913952 0.63495397 -10.83516093 0.28339494 -9.25 -0.0625 C-8.36828125 -0.25972656 -7.4865625 -0.45695312 -6.578125 -0.66015625 C-4.01320972 -0.99825872 -2.42908361 -0.81158635 0 0 Z " fill="#D7A410" transform="translate(346,479)"/>
<path d="M0 0 C2.97 0 5.94 0 9 0 C8.67 0.99 8.34 1.98 8 3 C6.02 3 4.04 3 2 3 C2 2.34 2 1.68 2 1 C1.34 0.67 0.68 0.34 0 0 Z " fill="#DAE1E0" transform="translate(386,349)"/>
<path d="M0 0 C0.66 0.33 1.32 0.66 2 1 C0.35 2.65 -1.3 4.3 -3 6 C-3.99 5.34 -4.98 4.68 -6 4 C-4.02 2.68 -2.04 1.36 0 0 Z " fill="#2B4E4A" transform="translate(951,382)"/>
<path d="M0 0 C1.32 0.66 2.64 1.32 4 2 C-0.75 5 -0.75 5 -3 5 C-3 4.34 -3 3.68 -3 3 C-2.34 3 -1.68 3 -1 3 C-0.67 2.01 -0.34 1.02 0 0 Z " fill="#E5AB0C" transform="translate(264,279)"/>
</svg>
